<svg xmlns="http://www.w3.org/2000/svg" width="797" height="799" fill="none" viewBox="0 0 797 799" id="data-science">
  <path stroke="#51CCF3" stroke-width="15.075" d="M401.541 273.116C501.081 273.116 590.857 288.682 655.472 313.59C687.804 326.053 713.453 340.709 730.888 356.599C748.321 372.486 756.95 389.017 756.95 405.486C756.95 421.956 748.321 438.486 730.888 454.373C713.453 470.263 687.804 484.919 655.472 497.382C590.857 522.29 501.081 537.856 401.541 537.856C302.001 537.856 212.225 522.29 147.609 497.382C115.277 484.919 89.6282 470.263 72.1929 454.373C54.7608 438.486 46.131 421.956 46.131 405.486C46.131 389.017 54.7608 372.486 72.1929 356.599C89.6282 340.709 115.277 326.053 147.609 313.59C212.225 288.682 302.001 273.116 401.541 273.116Z"></path>
  <path stroke="#51CCF3" stroke-width="15.075" d="M535.938 403.459C535.938 502.999 520.372 592.775 495.464 657.39C483.001 689.722 468.345 715.371 452.455 732.806C436.568 750.239 420.038 758.868 403.568 758.868C387.099 758.868 370.568 750.239 354.681 732.806C338.791 715.371 324.135 689.722 311.672 657.39C286.764 592.775 271.198 502.999 271.198 403.459C271.198 303.919 286.764 214.143 311.672 149.527C324.135 117.195 338.791 91.5462 354.681 74.1109C370.568 56.6787 387.099 48.049 403.568 48.049C420.038 48.049 436.568 56.6787 452.455 74.1109C468.345 91.5462 483.001 117.195 495.464 149.527C520.372 214.143 535.938 303.919 535.938 403.459Z"></path>
  <path stroke="#2C1E61" stroke-width="15.075" d="M497.14 311.125C567.524 381.509 619.955 456.035 647.966 519.4C661.982 551.106 669.717 579.643 670.768 603.25C671.819 626.851 666.19 644.7 654.486 656.404C642.782 668.108 624.933 673.737 601.332 672.686C577.725 671.635 549.188 663.901 517.482 649.884C454.117 621.873 379.591 569.442 309.207 499.058C238.824 428.675 186.392 354.149 158.381 290.784C144.365 259.077 136.63 230.54 135.579 206.933C134.528 183.332 140.157 165.483 151.861 153.779C163.565 142.075 181.414 136.446 205.015 137.497C228.622 138.548 257.159 146.283 288.866 160.299C352.23 188.31 426.757 240.742 497.14 311.125Z"></path>
  <path stroke="#2C1E61" stroke-width="15.075" d="M309.208 311.125C238.824 381.509 186.392 456.035 158.381 519.4C144.365 551.106 136.63 579.643 135.579 603.25C134.528 626.851 140.157 644.7 151.861 656.404C163.565 668.108 181.414 673.737 205.015 672.686C228.622 671.635 257.16 663.901 288.866 649.884C352.231 621.873 426.757 569.442 497.14 499.058C567.524 428.675 619.956 354.149 647.967 290.784C661.983 259.077 669.718 230.54 670.769 206.933C671.82 183.332 666.191 165.483 654.487 153.779C642.783 142.075 624.934 136.446 601.333 137.497C577.726 138.548 549.188 146.283 517.482 160.299C454.117 188.31 379.591 240.742 309.208 311.125Z"></path>
  <circle cx="502.922" cy="164.198" r="24.332" fill="#fff" stroke="#F1A81A" stroke-width="12.166"></circle>
  <circle cx="638.774" cy="310.187" r="24.332" fill="#fff" stroke="#F1A81A" stroke-width="12.166"></circle>
  <circle cx="638.774" cy="502.813" r="24.332" fill="#fff" stroke="#F1A81A" stroke-width="12.166"></circle>
  <circle cx="502.922" cy="646.775" r="24.332" fill="#fff" stroke="#F1A81A" stroke-width="12.166"></circle>
  <circle cx="294.076" cy="646.775" r="24.332" fill="#fff" stroke="#F1A81A" stroke-width="12.166"></circle>
  <circle cx="168.363" cy="502.813" r="24.332" fill="#fff" stroke="#F1A81A" stroke-width="12.166"></circle>
  <circle cx="168.363" cy="310.187" r="24.332" fill="#fff" stroke="#F1A81A" stroke-width="12.166"></circle>
  <circle cx="308.269" cy="164.198" r="24.332" fill="#fff" stroke="#F1A81A" stroke-width="12.166"></circle>
  <path fill="#fff" stroke="#FB8D2F" stroke-width="7.082" d="M356.211 365.933V340.265C357.311 339.64 358.894 338.966 361.021 338.303 364.054 337.357 367.867 336.528 372.258 335.844 381.034 334.477 391.839 333.731 402.751 333.693 413.666 333.655 424.572 334.325 433.556 335.746 438.049 336.457 441.99 337.344 445.178 338.395 447.554 339.177 449.361 340.003 450.643 340.813V365.992C450.643 366.566 450.231 367.044 449.688 367.137 416.126 372.858 394.762 372.974 357.184 367.083 356.632 366.996 356.211 366.515 356.211 365.933zM356.21 467.531V440.544C392.332 446.247 414.467 446.561 450.642 440.578V467.59C450.642 468.166 450.228 468.644 449.683 468.736 416.127 474.346 394.757 474.459 357.187 468.683 356.633 468.597 356.21 468.115 356.21 467.531z"></path>
  <path fill="#fff" stroke="#FB8D2F" stroke-width="7.082" d="M356.21 434.225V405.171C392.322 411.205 414.474 411.538 450.642 405.207V434.287C450.642 434.859 450.234 435.334 449.696 435.429C416.123 441.376 394.769 441.497 357.175 435.374C356.627 435.285 356.21 434.806 356.21 434.225Z"></path>
  <path fill="#fff" stroke="#FB8D2F" stroke-width="7.082" d="M356.21 399.068V372.08C392.332 377.783 414.467 378.098 450.642 372.115V399.127C450.642 399.702 450.228 400.181 449.683 400.272 416.127 405.882 394.757 405.996 357.187 400.219 356.633 400.134 356.21 399.652 356.21 399.068zM450.871 338.776C450.871 338.776 450.869 338.779 450.864 338.784 450.869 338.779 450.871 338.776 450.871 338.776zM448.77 339.159C449.119 339.313 449.418 339.458 449.673 339.594 449.418 339.729 449.119 339.874 448.77 340.028 446.566 340.997 443.156 341.955 438.67 342.789 429.757 344.448 417.294 345.496 403.427 345.496 389.56 345.496 377.098 344.448 368.184 342.789 363.698 341.955 360.289 340.997 358.084 340.028 357.736 339.874 357.436 339.729 357.181 339.594 357.436 339.458 357.736 339.313 358.084 339.159 360.289 338.19 363.698 337.232 368.184 336.398 377.098 334.739 389.56 333.692 403.427 333.692 417.294 333.692 429.757 334.739 438.67 336.398 443.156 337.232 446.566 338.19 448.77 339.159zM355.983 338.776C355.983 338.776 355.986 338.779 355.99 338.784 355.985 338.779 355.983 338.776 355.983 338.776zM355.983 340.411C355.983 340.411 355.985 340.409 355.99 340.403 355.986 340.409 355.983 340.411 355.983 340.411zM450.864 340.403C450.869 340.409 450.871 340.411 450.871 340.411 450.871 340.411 450.869 340.409 450.864 340.403z"></path>
  <rect width="28.16" height="11.918" x="562.376" y="42.676" fill="#F1A81A" rx="5.959" transform="rotate(136.64 562.376 42.676)"></rect>
  <rect width="28.16" height="11.918" x="594.879" y="9.09" fill="#F1A81A" rx="5.959" transform="rotate(136.64 594.879 9.09)"></rect>
  <rect width="28.16" height="11.918" fill="#F1A81A" rx="5.959" transform="scale(1 -1)rotate(-43.36 255.427 -675.807)"></rect>
  <rect width="28.16" height="11.918" fill="#F1A81A" rx="5.959" transform="scale(1 -1)rotate(-43.36 229.438 -733.48)"></rect>
  <rect width="28.16" height="11.918" x="266.11" y="769.656" fill="#F1A81A" rx="5.959" transform="rotate(46.64 266.11 769.656)"></rect>
  <rect width="28.16" height="11.918" x="232.525" y="737.152" fill="#F1A81A" rx="5.959" transform="rotate(46.64 232.525 737.152)"></rect>
  <rect width="28.16" height="11.918" fill="#F1A81A" rx="5.959" transform="scale(1 -1)rotate(46.64 1042.212 -129.454)"></rect>
  <rect width="28.16" height="11.918" fill="#F1A81A" rx="5.959" transform="scale(1 -1)rotate(46.64 1021.305 -74.248)"></rect>
  <rect width="28.16" height="11.918" x="754.571" y="553.458" fill="#3D539C" rx="5.959" transform="rotate(-133.36 754.571 553.458)"></rect>
  <rect width="28.16" height="11.918" x="788.156" y="585.962" fill="#3D539C" rx="5.959" transform="rotate(-133.36 788.156 585.962)"></rect>
  <rect width="28.16" height="11.918" fill="#3D539C" rx="5.959" transform="scale(-1 1)rotate(46.64 -1002.788 -651.769)"></rect>
  <rect width="28.16" height="11.918" fill="#3D539C" rx="5.959" transform="scale(-1 1)rotate(46.64 -1023.696 -596.562)"></rect>
  <rect width="28.16" height="11.918" x="42.926" y="259.363" fill="#3D539C" rx="5.959" transform="rotate(46.64 42.926 259.363)"></rect>
  <rect width="28.16" height="11.918" x="9.341" y="226.859" fill="#3D539C" rx="5.959" transform="rotate(46.64 9.34 226.859)"></rect>
  <rect width="28.16" height="11.918" fill="#3D539C" rx="5.959" transform="scale(1 -1)rotate(46.64 338.74 -133.175)"></rect>
  <rect width="28.16" height="11.918" fill="#3D539C" rx="5.959" transform="scale(1 -1)rotate(46.64 317.832 -77.969)"></rect>
</svg>