<svg xmlns="http://www.w3.org/2000/svg" viewBox="0 0 1000 1000" id="artificial-intelligence">
  <circle cx="168.02" cy="325.34" r="15.57" fill="#a6a6ff"></circle>
  <circle cx="254.17" cy="416" r="15.57" fill="#a6a6ff"></circle>
  <circle cx="146.47" cy="501.13" r="15.57" fill="#a6a6ff"></circle>
  <circle cx="254.17" cy="587.58" r="15.57" fill="#a6a6ff"></circle>
  <circle cx="412.06" cy="742.16" r="15.57" fill="#a6a6ff"></circle>
  <circle cx="322.64" cy="828.39" r="15.57" fill="#a6a6ff"></circle>
  <circle cx="498.51" cy="849.86" r="15.57" fill="#a6a6ff"></circle>
  <circle cx="674.3" cy="828.39" r="15.57" fill="#a6a6ff"></circle>
  <circle cx="583.64" cy="742.16" r="15.57" fill="#a6a6ff"></circle>
  <circle cx="832.07" cy="677" r="15.57" fill="#a6a6ff"></circle>
  <circle cx="745.83" cy="587.58" r="15.57" fill="#a6a6ff"></circle>
  <circle cx="853.53" cy="501.7" r="15.57" fill="#a6a6ff"></circle>
  <circle cx="745.83" cy="416.74" r="15.57" fill="#a6a6ff"></circle>
  <circle cx="831.98" cy="326.41" r="15.57" fill="#a6a6ff"></circle>
  <circle cx="583.64" cy="257.84" r="15.57" fill="#a6a6ff"></circle>
  <circle cx="412.06" cy="257.84" r="15.57" fill="#a6a6ff"></circle>
  <circle cx="322.81" cy="171.61" r="15.57" fill="#a6a6ff"></circle>
  <circle cx="498.47" cy="150.23" r="15.57" fill="#a6a6ff"></circle>
  <circle cx="674.3" cy="171.7" r="15.57" fill="#a6a6ff"></circle>
  <circle cx="168.02" cy="677" r="15.57" fill="#a6a6ff"></circle>
  <path fill="#e1e1ff" d="M632.84 400.83v200.75A32.91 32.91 0 0 1 600 634.45H397a32.92 32.92 0 0 1-32.88-32.88V400.83A32.92 32.92 0 0 1 397 368h203a32.91 32.91 0 0 1 32.84 32.83Z"></path>
  <rect width="170.35" height="168.94" x="413.29" y="416.74" fill="#a6a6ff" rx="20.84" ry="20.84"></rect>
  <g fill="#070707">
    <path d="M602 365.33H395a33.57 33.57 0 0 0-33.52 33.52v204.71A33.57 33.57 0 0 0 395 637.08h207a33.56 33.56 0 0 0 33.53-33.52V398.85A33.56 33.56 0 0 0 602 365.33Zm23.78 238.23A23.81 23.81 0 0 1 602 627.33H395a23.81 23.81 0 0 1-23.77-23.77V398.85A23.8 23.8 0 0 1 395 375.08h207a23.8 23.8 0 0 1 23.78 23.77Z"></path>
    <path d="M562.27 591.12H434.68a26.89 26.89 0 0 1-26.86-26.86V438.15a26.89 26.89 0 0 1 26.86-26.86h127.59a26.89 26.89 0 0 1 26.86 26.86v126.1a26.89 26.89 0 0 1-26.86 26.87ZM434.68 421a17.13 17.13 0 0 0-17.11 17.11v126.1a17.13 17.13 0 0 0 17.11 17.11h127.59a17.12 17.12 0 0 0 17.11-17.11V438.15A17.13 17.13 0 0 0 562.27 421Z"></path>
    <path d="M498.47 561h-47.86a12.38 12.38 0 0 1-12.37-12.37v-47.42a4.88 4.88 0 0 1 9.75 0v47.38a2.61 2.61 0 0 0 2.61 2.61h47.86a4.88 4.88 0 1 1 0 9.75zm55.35-54.92a4.88 4.88 0 0 1-4.88-4.88v-47.38a2.61 2.61 0 0 0-2.61-2.61h-47.86a4.88 4.88 0 0 1 0-9.75h47.86a12.38 12.38 0 0 1 12.37 12.37v47.38a4.88 4.88 0 0 1-4.88 4.87z"></path>
    <g>
      <g>
        <path d="M272.62 421a4.88 4.88 0 0 1 0-9.75l89.67-.35a4.88 4.88 0 0 1 0 9.75l-89.67.35Z"></path>
        <path d="M362 463.64H254.17a4.87 4.87 0 0 1-2.17-.51l-86.15-42.84a4.87 4.87 0 0 1-2.7-4.37V343.7a4.88 4.88 0 0 1 9.75 0v69.2l82.41 41H362a4.88 4.88 0 0 1 0 9.75zM168 663.59a4.88 4.88 0 0 1-4.88-4.88v-72.23a4.87 4.87 0 0 1 2.7-4.37L252 539.28a4.87 4.87 0 0 1 2.17-.51H362a4.88 4.88 0 0 1 0 9.75H255.31l-82.41 41v69.2a4.88 4.88 0 0 1-4.9 4.87z"></path>
        <path d="M362 592.46h-89.33a4.88 4.88 0 0 1 0-9.75H362a4.88 4.88 0 0 1 0 9.75zm.29-85.88H254.42a4.88 4.88 0 0 1 0-9.75h107.87a4.88 4.88 0 1 1 0 9.75z"></path>
        <path d="M362.29 506.58H168a4.88 4.88 0 0 1 0-9.75h194.29a4.88 4.88 0 1 1 0 9.75Z"></path>
      </g>
      <path d="M168 346.81a21.47 21.47 0 1 1 21.47-21.47A21.49 21.49 0 0 1 168 346.81zm0-33.18a11.71 11.71 0 1 0 11.71 11.71A11.73 11.73 0 0 0 168 313.63zm0 384.84A21.47 21.47 0 1 1 189.49 677 21.49 21.49 0 0 1 168 698.47zm0-33.18A11.71 11.71 0 1 0 179.73 677 11.73 11.73 0 0 0 168 665.29zM146.47 522.6a21.47 21.47 0 1 1 21.47-21.47 21.49 21.49 0 0 1-21.47 21.47zm0-33.18a11.71 11.71 0 1 0 11.71 11.71 11.73 11.73 0 0 0-11.71-11.71zm107.7 119.63a21.47 21.47 0 1 1 21.47-21.47 21.49 21.49 0 0 1-21.47 21.47zm0-33.18a11.71 11.71 0 1 0 11.71 11.71 11.73 11.73 0 0 0-11.71-11.71zm0-138.58a21.47 21.47 0 1 1 21.47-21.47 21.49 21.49 0 0 1-21.47 21.47zm0-33.18a11.71 11.71 0 1 0 11.71 11.71 11.73 11.73 0 0 0-11.71-11.71z"></path>
    </g>
    <g>
      <g>
        <path d="m727.38 421-95.67-.35a4.88 4.88 0 0 1 0-9.75h6l89.67.35a4.88 4.88 0 0 1 0 9.75Z"></path>
        <path d="M745.83 463.64H633.47a4.88 4.88 0 0 1 0-9.75h111.22l82.42-41V343.7a4.88 4.88 0 0 1 9.75 0v72.22a4.87 4.87 0 0 1-2.7 4.37L748 463.13a4.87 4.87 0 0 1-2.17.51zM832 663.59a4.88 4.88 0 0 1-4.88-4.88v-69.2l-82.42-41H633.47a4.88 4.88 0 0 1 0-9.75h112.36a4.87 4.87 0 0 1 2.17.51l86.15 42.84a4.87 4.87 0 0 1 2.7 4.37v72.23a4.88 4.88 0 0 1-4.85 4.88z"></path>
        <path d="M727.13 592.46h-93a4.88 4.88 0 1 1 0-9.75h93a4.88 4.88 0 1 1 0 9.75zm18.45-85.88H637.71a4.88 4.88 0 0 1 0-9.75h107.87a4.88 4.88 0 0 1 0 9.75z"></path>
        <path d="M831.91 506.58h-197a4.88 4.88 0 1 1 0-9.75h197a4.88 4.88 0 1 1 0 9.75Z"></path>
      </g>
      <path d="M832 346.81a21.47 21.47 0 1 1 21.47-21.47A21.49 21.49 0 0 1 832 346.81zm0-33.18a11.71 11.71 0 1 0 11.71 11.71A11.73 11.73 0 0 0 832 313.63zm0 384.84A21.47 21.47 0 1 1 853.45 677 21.49 21.49 0 0 1 832 698.47zm0-33.18A11.71 11.71 0 1 0 843.69 677 11.73 11.73 0 0 0 832 665.29zm21.53-142.69A21.47 21.47 0 1 1 875 501.13a21.49 21.49 0 0 1-21.47 21.47zm0-33.18a11.71 11.71 0 1 0 11.71 11.71 11.73 11.73 0 0 0-11.71-11.71zm-107.7 119.63a21.47 21.47 0 1 1 21.47-21.47 21.49 21.49 0 0 1-21.47 21.47zm0-33.18a11.71 11.71 0 1 0 11.71 11.71 11.73 11.73 0 0 0-11.71-11.71zm0-138.58a21.47 21.47 0 1 1 21.47-21.47 21.49 21.49 0 0 1-21.47 21.47zm0-33.18a11.71 11.71 0 1 0 11.71 11.71 11.73 11.73 0 0 0-11.71-11.71z"></path>
    </g>
    <g>
      <g>
        <path d="M583.47 728.58a4.88 4.88 0 0 1-4.86-4.9l.35-89.67a4.88 4.88 0 0 1 4.88-4.86 4.88 4.88 0 0 1 4.86 4.9l-.35 89.67a4.88 4.88 0 0 1-4.88 4.86Z"></path>
        <path d="M655.94 833.18h-72.22a4.87 4.87 0 0 1-4.37-2.7l-42.84-86.15a4.87 4.87 0 0 1-.51-2.17V634.3a4.88 4.88 0 1 1 9.75 0V741l41 82.42h69.2a4.88 4.88 0 0 1 0 9.75zm-242.78 0h-72.23a4.88 4.88 0 0 1 0-9.75h69.2l41-82.42V634.3a4.88 4.88 0 0 1 9.75 0v107.86a4.87 4.87 0 0 1-.51 2.17l-42.84 86.15a4.87 4.87 0 0 1-4.37 2.7z"></path>
        <path d="M412.06 728.53a4.88 4.88 0 0 1-4.88-4.88V634.3a4.88 4.88 0 0 1 4.88-4.88 4.88 4.88 0 0 1 4.88 4.88v89.35a4.88 4.88 0 0 1-4.88 4.88zm85.88 18.25a4.88 4.88 0 0 1-4.88-4.88V634a4.88 4.88 0 1 1 9.75 0v107.9a4.88 4.88 0 0 1-4.87 4.88z"></path>
        <path d="M497.94 833.18a4.88 4.88 0 0 1-4.88-4.88V634a4.88 4.88 0 1 1 9.75 0v194.31a4.88 4.88 0 0 1-4.87 4.87Z"></path>
      </g>
      <path d="M674.3 849.77a21.47 21.47 0 1 1 21.47-21.46 21.49 21.49 0 0 1-21.47 21.46zm0-33.18a11.71 11.71 0 1 0 11.7 11.72 11.73 11.73 0 0 0-11.7-11.72zm-351.66 33.18a21.47 21.47 0 1 1 21.47-21.46 21.49 21.49 0 0 1-21.47 21.46zm0-33.18a11.71 11.71 0 1 0 11.71 11.71 11.73 11.73 0 0 0-11.71-11.71zm175.87 54.73A21.47 21.47 0 1 1 520 849.86a21.49 21.49 0 0 1-21.49 21.46zm0-33.18a11.71 11.71 0 1 0 11.71 11.71 11.73 11.73 0 0 0-11.71-11.7zm-86.45-74.51a21.47 21.47 0 1 1 21.46-21.47 21.49 21.49 0 0 1-21.46 21.47zm0-33.18a11.71 11.71 0 1 0 11.71 11.71 11.73 11.73 0 0 0-11.71-11.72zm171.76 33.18a21.47 21.47 0 1 1 21.47-21.47 21.49 21.49 0 0 1-21.47 21.47zm0-33.18a11.71 11.71 0 1 0 11.71 11.71 11.73 11.73 0 0 0-11.71-11.72z"></path>
    </g>
    <g>
      <g>
        <path d="M583.82 370.84a4.88 4.88 0 0 1-4.88-4.86l-.35-89.67a4.88 4.88 0 0 1 4.86-4.9 4.88 4.88 0 0 1 4.88 4.86l.35 89.67a4.88 4.88 0 0 1-4.86 4.9Z"></path>
        <path d="M540.88 370.58a4.88 4.88 0 0 1-4.88-4.88V257.84a4.87 4.87 0 0 1 .51-2.17l42.84-86.15a4.87 4.87 0 0 1 4.37-2.7h72.23a4.88 4.88 0 0 1 0 9.75h-69.2l-41 82.41V365.7a4.88 4.88 0 0 1-4.87 4.88zm-84.88 0a4.88 4.88 0 0 1-4.88-4.88V259l-41-82.41h-69.2a4.88 4.88 0 0 1 0-9.75h72.22a4.87 4.87 0 0 1 4.37 2.7l42.84 86.15a4.87 4.87 0 0 1 .51 2.17V365.7a4.88 4.88 0 0 1-4.86 4.88z"></path>
        <path d="M412.06 370.58a4.88 4.88 0 0 1-4.88-4.88v-89.35a4.88 4.88 0 1 1 9.75 0v89.35a4.88 4.88 0 0 1-4.87 4.88zm85.88.26a4.88 4.88 0 0 1-4.88-4.88V258.1a4.88 4.88 0 1 1 9.75 0V366a4.88 4.88 0 0 1-4.87 4.84z"></path>
        <path d="M497.94 370.84a4.88 4.88 0 0 1-4.88-4.88V171.7a4.88 4.88 0 1 1 9.75 0V366a4.88 4.88 0 0 1-4.87 4.84Z"></path>
      </g>
      <path d="M674.3 193.16a21.47 21.47 0 1 1 21.47-21.47 21.49 21.49 0 0 1-21.47 21.47zm0-33.18A11.71 11.71 0 1 0 686 171.7a11.73 11.73 0 0 0-11.7-11.7zm-351.66 33.18a21.47 21.47 0 1 1 21.47-21.47 21.49 21.49 0 0 1-21.47 21.47zm0-33.18a11.71 11.71 0 1 0 11.71 11.71A11.73 11.73 0 0 0 322.64 160zm175.87 11.63A21.47 21.47 0 1 1 520 150.14a21.49 21.49 0 0 1-21.49 21.47zm0-33.18a11.71 11.71 0 1 0 11.71 11.71 11.73 11.73 0 0 0-11.71-11.71zm-86.45 140.88a21.47 21.47 0 1 1 21.46-21.47 21.49 21.49 0 0 1-21.46 21.47zm0-33.18a11.71 11.71 0 1 0 11.71 11.71 11.73 11.73 0 0 0-11.71-11.71zm171.76 33.18a21.47 21.47 0 1 1 21.47-21.47 21.49 21.49 0 0 1-21.47 21.47zm0-33.18a11.71 11.71 0 1 0 11.71 11.71 11.73 11.73 0 0 0-11.71-11.71z"></path>
    </g>
  </g>
</svg>