<svg xmlns="http://www.w3.org/2000/svg" viewBox="0 0 512 512" id="global-data-laptop">
  <defs>
    <linearGradient id="a" x1="256.07" x2="256.07" y1="35.769" y2="479.824" gradientUnits="userSpaceOnUse">
      <stop offset="0" stop-color="#00efd1"></stop>
      <stop offset="1" stop-color="#00acea"></stop>
    </linearGradient>
  </defs>
  <path fill="url(#a)" d="M506.14,151.836c0-71.642-58.277-129.791-129.92-129.791C320.809,22.045,273.4,57,254.763,106H75.85C49.067,106,27,127.517,27,154.3V402H13.844C9.426,402,6,405.906,6,410.324v31.2A48.415,48.415,0,0,0,54.415,490H445.9A48.151,48.151,0,0,0,494,441.52v-31.2c0-4.418-3.114-8.324-7.532-8.324H473V238.4C494,215.4,506.14,185.057,506.14,151.836ZM246.933,165c6.449,65,61.974,116.946,129.3,116.946A130.339,130.339,0,0,0,417,275.205V365H83V165Zm38.042-81.216a129.949,129.949,0,0,0,20.978,16.833A169.008,169.008,0,0,0,298.824,144H262.587A111.867,111.867,0,0,1,284.975,83.784Zm182.533.033A111.828,111.828,0,0,1,489.871,144H453.633a176.247,176.247,0,0,0-7.094-43.264A128.568,128.568,0,0,0,467.508,83.817ZM446.541,203.139A175.229,175.229,0,0,0,453.633,160h36.238a114.512,114.512,0,0,1-22.363,60.06A128.661,128.661,0,0,0,446.541,203.139ZM298.824,160a175.545,175.545,0,0,0,7.126,43.256,129.98,129.98,0,0,0-20.975,16.838A114.557,114.557,0,0,1,262.587,160Zm26.464,50.448A113.7,113.7,0,0,1,368,198.865V262C349,250.475,334.413,232.643,325.288,210.448ZM368,182.822a127.679,127.679,0,0,0-47.808,12.434A162.249,162.249,0,0,1,314.836,160H368Zm-56.411,35.821a127.286,127.286,0,0,0,27.632,40.946,114.169,114.169,0,0,1-43.758-27.482A113.637,113.637,0,0,1,311.589,218.643ZM384,262V198.833a112.687,112.687,0,0,1,42.758,11.5C417.637,232.58,403,250.455,384,262Zm0-79.211V160h53.621a161.9,161.9,0,0,1-5.55,35.133A127.744,127.744,0,0,0,384,182.785ZM437.62,144H384V120.883A127.729,127.729,0,0,0,432.068,108.7,154.077,154.077,0,0,1,437.62,144ZM384,104.845V41.683c19,11.54,33.639,29.417,42.76,51.669A112.471,112.471,0,0,1,384,104.845ZM368,41.684V104.81a113.538,113.538,0,0,1-42.711-11.583C334.414,71.032,349,53.2,368,41.684Zm0,79.164V144H314.837a154.81,154.81,0,0,1,5.359-35.429A127.633,127.633,0,0,0,368,120.848Zm45.237,138.741a127.3,127.3,0,0,0,27.675-41.045,112.223,112.223,0,0,1,16.108,13.537A114.166,114.166,0,0,1,413.237,259.589Zm43.783-188a112.382,112.382,0,0,1-16.108,13.541A127.3,127.3,0,0,0,413.23,44.082,114.165,114.165,0,0,1,457.02,71.592ZM339.228,44.082a127.258,127.258,0,0,0-27.637,40.949,113.649,113.649,0,0,1-16.128-13.465A114.173,114.173,0,0,1,339.228,44.082ZM478,441.52A32.134,32.134,0,0,1,445.9,474H54.415A32.4,32.4,0,0,1,22,441.52V418H187.132l5.857,6.351A48.7,48.7,0,0,0,228.7,440h42.9a48.7,48.7,0,0,0,35.715-15.649L313.18,418H478ZM309.674,402a8.164,8.164,0,0,0-5.883,2.74l-8.234,8.849A32.575,32.575,0,0,1,271.607,424H228.7a32.5,32.5,0,0,1-23.949-10.33l-8.234-9.013A8.082,8.082,0,0,0,190.638,402H43V154.3C43,136.34,57.89,122,75.85,122H249.831a118.776,118.776,0,0,0-3.488,27H75.314C70.9,149,67,152.217,67,156.635V372.966A8.3,8.3,0,0,0,75.314,381H425a8.032,8.032,0,0,0,8-8.034V268.688A107.427,107.427,0,0,0,457,253.5V402Z"></path>
</svg>