<svg xmlns="http://www.w3.org/2000/svg" enable-background="new 0 0 24 24" viewBox="0 0 24 24" id="click">
  <g>
    <path fill="#886cff" d="M16.6,9c0,0.9-0.6,1.6-1.5,1.9l-2.8,0.8l-0.4,0.1l0,0.4l-0.5,3.5c-0.1,0.9-0.8,1.6-1.7,1.7c-0.1,0-0.2,0-0.3,0
		c-0.8,0-1.4-0.4-1.8-1.1c0,0,0,0,0-0.1L3.1,6.5C2.7,5.8,2.9,5,3.4,4.3c0.5-0.6,1.4-0.8,2.1-0.6L15.3,7c0.4,0.1,0.8,0.4,1,0.7v0
		C16.5,8.1,16.6,8.5,16.6,9z"></path>
    <path fill="#584ae5" d="M19,14c0,0.5-0.5,1-1,1h-3c-0.5,0-1-0.5-1-1s0.5-1,1-1h3C18.5,13,19,13.5,19,14z"></path>
    <path fill="#886cff" d="M20,17c0,0.5-0.5,1-1,1h-4c-0.5,0-1-0.5-1-1s0.5-1,1-1h4C19.5,16,20,16.5,20,17z"></path>
    <path fill="#584ae5" d="M21,20c0,0.5-0.5,1-1,1h-5c-0.5,0-1-0.5-1-1s0.5-1,1-1h5C20.5,19,21,19.5,21,20z"></path>
    <path d="M7.7 16.3l4.2-4.2-.5 3.5c-.1.9-.8 1.6-1.7 1.7-.1 0-.2 0-.3 0C8.7 17.4 8 17 7.7 16.3zM15.2 10.8l-2.8.8 3.9-3.9c.2.3.4.8.4 1.2C16.6 9.8 16 10.6 15.2 10.8zM15 13h3c.5 0 1 .5 1 1s-.5 1-1 1h-3c-.5 0-1-.5-1-1S14.5 13 15 13zM19 16c.5 0 1 .5 1 1s-.5 1-1 1h-4c-.5 0-1-.5-1-1s.5-1 1-1H19zM21 20c0 .5-.5 1-1 1h-5c-.5 0-1-.5-1-1s.5-1 1-1h5C20.5 19 21 19.5 21 20z" opacity=".1"></path>
  </g>
</svg>